PathFileType	4	(X/Y/Z)	Walk1.trc
DataRate	CameraRate	NumFrames	NumMarkers	Units	OrigDataRate	OrigDataStartFrame	OrigNumFrames
200.000000	200.000000	8	61	mm	200.000000	195	465
Frame#	Times		LFHD		RFHD		CLAV		STRN		LASI		RASI		RACR1		RUA1		RWRR		RWRU		RCAR		LACR1		LUA1		LFA1		LWRU		LCAR		RTH3		RTH2		RTB1		RTB4		LTH1		LTH3		LTH2		LTH4		LLFC		LMFC		LTB1		LTB3		LTB2		LTB4		LLMAL		LMMAL		LMT1		LMT5		LToe		LBHD		RBHD		RTB3		RFA1		RMFC		RMT5		RLFC		RToe		LElbowM		RTH4		RTB2		RLMAL		RMMAL		RMT1		LWRR		RElbow		LPSI		RPSI		RTH1		C7		LCAL		T10		RBack		RElbowM		RCAL		LElbow
			X1	Y1	Z1	X2	Y2	Z2	X3	Y3	Z3	X4	Y4	Z4	X5	Y5	Z5	X6	Y6	Z6	X7	Y7	Z7	X8	Y8	Z8	X9	Y9	Z9	X10	Y10	Z10	X11	Y11	Z11	X12	Y12	Z12	X13	Y13	Z13	X14	Y14	Z14	X15	Y15	Z15	X16	Y16	Z16	X17	Y17	Z17	X18	Y18	Z18	X19	Y19	Z19	X20	Y20	Z20	X21	Y21	Z21	X22	Y22	Z22	X23	Y23	Z23	X24	Y24	Z24	X25	Y25	Z25	X26	Y26	Z26	X27	Y27	Z27	X28	Y28	Z28	X29	Y29	Z29	X30	Y30	Z30	X31	Y31	Z31	X32	Y32	Z32	X33	Y33	Z33	X34	Y34	Z34	X35	Y35	Z35	X36	Y36	Z36	X37	Y37	Z37	X38	Y38	Z38	X39	Y39	Z39	X40	Y40	Z40	X41	Y41	Z41	X42	Y42	Z42	X43	Y43	Z43	X44	Y44	Z44	X45	Y45	Z45	X46	Y46	Z46	X47	Y47	Z47	X48	Y48	Z48	X49	Y49	Z49	X50	Y50	Z50	X51	Y51	Z51	X52	Y52	Z52	X53	Y53	Z53	X54	Y54	Z54	X55	Y55	Z55	X56	Y56	Z56	X57	Y57	Z57	X58	Y58	Z58	X59	Y59	Z59	X60	Y60	Z60	X61	Y61	Z61

195	0.975	-327.89	1526	-115.67	-325.73	1534.1	-16.537	-421.62	1282.1	-48.023	-405.35	1150	-38.601	-433.24	880.52	-145.82	-452.2	900.89	101.32	-490.5	1335.3	115.97	-475.95	1168.6	175.44	-297.43	808.59	198.7	-261.03	845.73	154.12	-226.7	782.01	195.09	-503.94	1336.3	-199.32	-576.9	1175.5	-248.34	-699.46	912.1	-272.28	-696.48	784.42	-272.03	-760.72	737.31	-286.77	-599.78	579.46	134.1	-520.04	646.87	129.35	-682.59	328.12	74.111	-727.13	253.7	63.94	-449.61	722.02	-221.52	-394.15	561.39	-192.25	-371.86	664.7	-184.6	-422.4	640.79	-208.98	-349.86	430.08	-173.91	-370.79	408.56	-43.532	-272.46	360.08	-106.59	-228.71	194.95	-99.253	-268.59	269.83	-162.31	-253.56	275.85	-103.39	-240.71	71.297	-140.17	-232.68	93.691	-61.573	-98.211	84.924	-75.481	-124.82	60.559	-148.9	-46.618	98.827	-105.09	-483.53	1507.9	-134.5	-476.21	1524.3	10.29	-772.46	181.69	50.598	-355.78	911.8	211.24	-691.01	449.15	-20.199	-798.15	22.834	66.53	-649.72	442.57	103.12	-711.47	21.186	18.619	-653.04	1036.7	-246.97	-572.91	657.13	152.63	-770.79	275.39	101.37	-872.46	108.76	53.51	-843.06	120.96	-22.703	-760.87	26.956	-16.752	-757.01	809.52	-248.74	-457.25	1002.8	214.6	-614.78	938.48	-90.852	-619.04	936.79	12.785	-543.33	736.76	174.39	-524.62	1394.8	-51.572	-282.28	25.766	-99.161	-610.15	1185.1	-35.593	-609.59	1274.4	29.991	-500.54	990.47	149.79	-927.78	108.83	12.03	-647.44	1019.6	-174.98
196	0.98	-319.73	1525.5	-116.14	-317.71	1533.4	-16.992	-413.43	1281.6	-48.856	-396.91	1149.5	-39.357	-424.68	880.2	-146.35	-443.51	899.76	100.71	-482.48	1334.7	115.14	-467.83	1168	174.61	-289.05	808.26	197.89	-252.56	845.62	153.6	-218.26	781.87	194.52	-495.85	1335.5	-200.18	-568.53	1174.7	-249.33	-690.97	911.3	-273.77	-688.26	783.6	-273.23	-752.53	736.56	-288.22	-591.14	578.42	133.82	-511.45	645.83	128.79	-676.1	327.33	74.377	-721.91	253.71	64.42	-440.74	722.02	-221.91	-385.16	561.57	-192.06	-362.96	664.9	-184.76	-413.48	640.86	-209.04	-340.76	430.35	-173.24	-361.73	409.26	-42.793	-264.68	359.14	-106.38	-222.92	193.64	-98.597	-261.77	268.81	-161.85	-246.74	274.75	-102.94	-236.28	69.995	-139.25	-228.14	92.467	-60.687	-93.858	81.457	-74.478	-120.7	57.642	-148	-42.035	94.586	-103.95	-475.35	1507.5	-135.23	-468.23	1523.6	9.6056	-768.51	182.44	51.268	-347.6	911.36	210.59	-682.7	447.83	-20.065	-797.61	23.148	66.792	-641.14	441.47	103.18	-711.81	21.112	18.45	-644.61	1035.9	-248.32	-564.24	656.12	152.19	-765.16	276.21	101.9	-869.76	111.26	54.48	-840.28	122.82	-21.803	-760.91	26.873	-16.656	-748.93	808.92	-250.55	-449.24	1002.2	213.81	-606.18	938.18	-91.281	-610.34	936.23	12.381	-534.63	735.79	173.73	-516.55	1394.1	-52.526	-278.67	25.988	-98.703	-601.76	1184.4	-36.285	-601.43	1273.6	29.032	-492.46	989.82	149.05	-925.02	112.71	13.323	-639.52	1018.7	-176.27
197	0.985	-311.54	1525.1	-116.61	-309.67	1532.7	-17.445	-405.21	1281.1	-49.728	-388.44	1149	-40.159	-416.2	879.97	-146.94	-434.76	898.66	100.08	-474.4	1334.1	114.28	-459.72	1167.4	173.76	-280.89	807.85	197.14	-244.26	845.38	153.14	-210.06	781.58	194.04	-487.73	1334.8	-201.07	-560.01	1173.8	-250.37	-682.22	910.44	-275.33	-679.68	782.72	-274.5	-743.94	735.73	-289.79	-582.23	577.28	133.5	-502.63	644.77	128.17	-669.27	326.48	74.659	-716.38	253.71	64.922	-431.96	722.12	-222.32	-376.13	561.89	-191.85	-354.08	665.25	-185	-404.58	641.06	-209.08	-331.53	430.79	-172.52	-352.36	410.22	-41.974	-256.97	358.26	-106.13	-217.52	192.32	-97.908	-255.15	267.85	-161.37	-240.15	273.69	-102.46	-232.43	68.745	-138.33	-224.2	91.267	-59.79	-90.125	77.701	-73.441	-117.24	54.556	-147.1	-38.055	89.968	-102.76	-467.14	1507.2	-135.99	-460.24	1523	8.8869	-764.28	183.23	51.966	-339.54	910.89	209.97	-674.04	446.36	-19.934	-797.01	23.54	67.064	-632.17	440.23	103.22	-712.19	21.027	18.289	-636.02	1035	-249.75	-555.35	655.04	151.7	-759.19	277.05	102.44	-866.78	113.87	55.467	-837.21	124.76	-20.879	-760.93	26.828	-16.549	-740.51	808.22	-252.46	-441.29	1001.6	213	-597.61	937.97	-91.604	-601.62	935.72	12.056	-525.77	734.78	173.01	-508.45	1393.5	-53.509	-275.75	26.335	-98.267	-593.35	1183.7	-36.973	-593.23	1272.9	28.066	-484.41	989.22	148.28	-921.9	116.8	14.637	-631.47	1017.9	-177.63
198	0.99	-303.33	1524.8	-117.09	-301.64	1532.2	-17.903	-396.96	1280.7	-50.633	-379.95	1148.7	-41.006	-407.82	879.86	-147.57	-425.98	897.61	99.44	-466.24	1333.6	113.42	-451.61	1166.9	172.89	-272.94	807.37	196.45	-236.14	845	152.74	-202.11	781.15	193.63	-479.58	1334.1	-201.97	-551.33	1172.9	-251.45	-673.2	909.51	-276.95	-670.75	781.78	-275.83	-734.94	734.82	-291.48	-573.01	576.05	133.15	-493.59	643.69	127.5	-662.1	325.58	74.955	-710.53	253.7	65.444	-423.27	722.31	-222.74	-367.1	562.35	-191.64	-345.22	665.76	-185.33	-395.73	641.37	-209.14	-322.22	431.41	-171.78	-342.73	411.43	-41.094	-249.35	357.46	-105.85	-212.46	191.05	-97.207	-248.69	266.99	-160.89	-233.76	272.69	-101.96	-229.07	67.596	-137.45	-220.79	90.131	-58.92	-86.942	73.756	-72.39	-114.35	51.388	-146.24	-34.614	85.093	-101.55	-458.9	1507	-136.79	-452.25	1522.4	8.1359	-759.73	184.06	52.684	-331.62	910.39	209.36	-665.02	444.71	-19.813	-796.35	24.034	67.344	-622.79	438.87	103.23	-712.6	20.93	18.14	-627.27	1034.1	-251.25	-546.23	653.89	151.17	-752.87	277.92	102.97	-863.48	116.61	56.459	-833.81	126.78	-19.943	-760.92	26.837	-16.429	-731.77	807.42	-254.45	-433.39	1001.1	212.18	-589.1	937.86	-91.819	-592.92	935.27	11.808	-516.75	733.73	172.25	-500.31	1393	-54.513	-273.41	26.794	-97.875	-584.93	1183.1	-37.652	-585	1272.3	27.105	-476.4	988.68	147.48	-918.4	121.12	15.956	-623.28	1017	-179.06
199	0.995	-295.09	1524.6	-117.57	-293.59	1531.8	-18.368	-388.69	1280.3	-51.563	-371.45	1148.3	-41.89	-399.53	879.86	-148.25	-417.19	896.61	98.786	-458.01	1333.2	112.55	-443.5	1166.5	172.01	-265.21	806.81	195.82	-228.21	844.51	152.39	-194.4	780.6	193.31	-471.41	1333.5	-202.89	-542.51	1172	-252.58	-663.92	908.54	-278.63	-661.46	780.82	-277.22	-725.54	733.86	-293.29	-563.51	574.75	132.76	-484.33	642.62	126.76	-654.55	324.63	75.264	-704.33	253.68	65.978	-414.68	722.61	-223.2	-358.08	562.95	-191.43	-336.41	666.4	-185.76	-386.94	641.79	-209.22	-312.87	432.19	-171.04	-332.89	412.86	-40.173	-241.82	356.74	-105.55	-207.7	189.84	-96.515	-242.37	266.24	-160.41	-227.58	271.78	-101.45	-226.13	66.584	-136.65	-217.85	89.091	-58.114	-84.247	69.718	-71.342	-111.94	48.219	-145.43	-31.654	80.084	-100.31	-450.62	1506.8	-137.61	-444.26	1522	7.3553	-754.85	184.93	53.418	-323.82	909.86	208.77	-655.61	442.9	-19.709	-795.61	24.654	67.628	-612.97	437.37	103.21	-713.03	20.82	18.01	-618.36	1033.2	-252.8	-536.9	652.69	150.6	-746.19	278.83	103.49	-859.86	119.48	57.439	-830.05	128.9	-19.008	-760.85	26.921	-16.294	-722.7	806.54	-256.51	-425.54	1000.6	211.35	-580.64	937.85	-91.928	-584.24	934.86	11.633	-507.59	732.64	171.44	-492.13	1392.5	-55.529	-271.55	27.348	-97.546	-576.49	1182.6	-38.315	-576.73	1271.9	26.16	-468.43	988.22	146.66	-914.46	125.69	17.266	-614.96	1016.2	-180.54
200	1	-286.83	1524.5	-118.07	-285.53	1531.5	-18.847	-380.4	1280.1	-52.51	-362.94	1148.1	-42.807	-391.35	879.98	-148.97	-408.39	895.68	98.126	-449.72	1332.9	111.69	-435.4	1166.1	171.12	-257.7	806.18	195.26	-220.47	843.89	152.09	-186.94	779.91	193.06	-463.21	1333	-203.8	-533.55	1171.1	-253.73	-654.4	907.53	-280.35	-651.83	779.83	-278.66	-715.74	732.85	-295.21	-553.7	573.36	132.33	-474.85	641.55	125.97	-646.62	323.64	75.584	-697.76	253.67	66.52	-406.19	722.99	-223.68	-349.11	563.66	-191.25	-327.66	667.16	-186.28	-378.23	642.32	-209.33	-303.53	433.11	-170.29	-322.92	414.5	-39.234	-234.4	356.13	-105.24	-203.23	188.72	-95.852	-236.18	265.6	-159.97	-221.59	270.95	-100.94	-223.53	65.729	-135.97	-215.31	88.169	-57.403	-81.984	65.68	-70.315	-109.94	45.121	-144.7	-29.123	75.056	-99.067	-442.33	1506.7	-138.46	-436.26	1521.6	6.5488	-749.61	185.87	54.159	-316.15	909.32	208.2	-645.8	440.91	-19.626	-794.78	25.432	67.911	-602.71	435.74	103.15	-713.48	20.698	17.904	-609.29	1032.4	-254.39	-527.35	651.43	149.98	-739.11	279.77	103.98	-855.87	122.49	58.393	-825.9	131.11	-18.085	-760.71	27.103	-16.14	-713.3	805.57	-258.63	-417.75	1000.2	210.51	-572.25	937.92	-91.935	-575.59	934.5	11.525	-498.29	731.53	170.58	-483.92	1392.2	-56.547	-270.08	27.978	-97.294	-568.07	1182.3	-38.957	-568.42	1271.5	25.244	-460.49	987.85	145.81	-910.07	130.5	18.553	-606.49	1015.4	-182.07
201	1.005	-278.55	1524.6	-118.58	-277.46	1531.4	-19.341	-372.1	1279.9	-53.464	-354.45	1147.9	-43.748	-383.26	880.22	-149.73	-399.6	894.83	97.465	-441.35	1332.6	110.83	-427.31	1165.8	170.23	-250.41	805.5	194.77	-212.92	843.17	151.83	-179.74	779.11	192.89	-454.98	1332.6	-204.7	-524.46	1170.2	-254.9	-644.63	906.5	-282.1	-641.85	778.83	-280.17	-705.53	731.8	-297.22	-543.58	571.9	131.85	-465.15	640.5	125.13	-638.29	322.62	75.912	-690.82	253.67	67.061	-397.82	723.46	-224.21	-340.21	564.47	-191.1	-318.99	668.02	-186.89	-369.62	642.94	-209.48	-294.23	434.14	-169.58	-312.88	416.3	-38.305	-227.12	355.59	-104.91	-199	187.68	-95.233	-230.12	265.08	-159.57	-215.79	270.22	-100.46	-221.21	65.038	-135.42	-213.13	87.374	-56.807	-80.1	61.719	-69.324	-108.29	42.152	-144.07	-26.969	70.104	-97.83	-434.01	1506.7	-139.33	-428.25	1521.3	5.7211	-744	186.88	54.898	-308.62	908.76	207.64	-635.56	438.76	-19.572	-793.85	26.399	68.192	-592	433.98	103.05	-713.91	20.568	17.831	-600.07	1031.5	-256.01	-517.59	650.13	149.31	-731.62	280.76	104.44	-851.5	125.66	59.307	-821.34	133.43	-17.188	-760.45	27.41	-15.961	-703.56	804.53	-260.79	-410.01	999.89	209.66	-563.92	938.07	-91.846	-567	934.17	11.475	-488.87	730.41	169.68	-475.67	1392	-57.557	-268.93	28.662	-97.124	-559.65	1182	-39.571	-560.1	1271.3	24.372	-452.59	987.56	144.93	-905.19	135.58	19.802	-597.87	1014.6	-183.63
202	1.01	-270.25	1524.7	-119.11	-269.37	1531.3	-19.855	-363.79	1279.8	-54.417	-345.98	1147.8	-44.705	-375.27	880.57	-150.51	-390.85	894.07	96.808	-432.92	1332.4	109.98	-419.21	1165.6	169.34	-243.35	804.76	194.33	-205.56	842.33	151.61	-172.8	778.19	192.8	-446.74	1332.3	-205.59	-515.25	1169.4	-256.07	-634.62	905.47	-283.87	-631.52	777.83	-281.72	-694.93	730.73	-299.33	-533.17	570.38	131.34	-455.24	639.48	124.25	-629.54	321.57	76.244	-683.48	253.69	67.595	-389.57	724.01	-224.77	-331.42	565.36	-190.99	-310.41	668.94	-187.58	-361.11	643.63	-209.66	-285.03	435.26	-168.91	-302.85	418.23	-37.415	-219.99	355.13	-104.58	-195	186.73	-94.67	-224.19	264.66	-159.22	-210.18	269.56	-100	-219.11	64.5	-135	-211.25	86.703	-56.335	-78.545	57.898	-68.383	-106.92	39.359	-143.54	-25.145	65.307	-96.616	-425.67	1506.8	-140.21	-420.22	1521.1	4.8777	-737.99	187.96	55.624	-301.21	908.2	207.11	-624.88	436.44	-19.55	-792.78	27.593	68.467	-580.82	432.11	102.91	-714.31	20.433	17.799	-590.71	1030.7	-257.66	-507.62	648.79	148.6	-723.7	281.8	104.87	-846.73	129	60.166	-816.36	135.88	-16.331	-760.05	27.871	-15.753	-693.49	803.43	-262.99	-402.32	999.67	208.8	-555.67	938.29	-91.672	-558.47	933.88	11.473	-479.34	729.27	168.75	-467.41	1391.8	-58.548	-268.04	29.381	-97.037	-551.26	1181.9	-40.152	-551.76	1271.1	23.555	-444.73	987.37	144.02	-899.79	140.93	20.998	-589.11	1013.8	-185.22
